<svg width="37" height="37" viewBox="0 0 37 37" fill="none" xmlns="http://www.w3.org/2000/svg">
<g id="icon/design/CirclesThreePlus">
<path id="Vector" d="M11.1972 16.5341C13.9845 16.5341 16.244 14.2745 16.244 11.4873C16.244 8.69997 13.9845 6.44043 11.1972 6.44043C8.40993 6.44043 6.15039 8.69997 6.15039 11.4873C6.15039 14.2745 8.40993 16.5341 11.1972 16.5341Z" stroke="#B3B3B3" stroke-width="1.5" stroke-linecap="round" stroke-linejoin="round"/>
<path id="Vector_2" d="M25.7773 16.5341C28.5646 16.5341 30.8241 14.2745 30.8241 11.4873C30.8241 8.69997 28.5646 6.44043 25.7773 6.44043C22.99 6.44043 20.7305 8.69997 20.7305 11.4873C20.7305 14.2745 22.99 16.5341 25.7773 16.5341Z" stroke="#B3B3B3" stroke-width="1.5" stroke-linecap="round" stroke-linejoin="round"/>
<path id="Vector_3" d="M11.1972 31.1137C13.9845 31.1137 16.244 28.8541 16.244 26.0668C16.244 23.2796 13.9845 21.02 11.1972 21.02C8.40993 21.02 6.15039 23.2796 6.15039 26.0668C6.15039 28.8541 8.40993 31.1137 11.1972 31.1137Z" stroke="#B3B3B3" stroke-width="1.5" stroke-linecap="round" stroke-linejoin="round"/>
<path id="Vector_4" d="M25.7773 22.1416L25.7773 29.9922" stroke="#B3B3B3" stroke-width="1.5" stroke-linecap="round" stroke-linejoin="round"/>
<path id="Vector_5" d="M29.7022 26.0669L21.8516 26.0669" stroke="#B3B3B3" stroke-width="1.5" stroke-linecap="round" stroke-linejoin="round"/>
</g>
</svg>
