<svg width="34" height="34" viewBox="0 0 34 34" fill="none" xmlns="http://www.w3.org/2000/svg">
<g id="icon/device/Gear">
<path id="Vector" d="M17 23.375C20.5208 23.375 23.375 20.5208 23.375 17C23.375 13.4792 20.5208 10.625 17 10.625C13.4792 10.625 10.625 13.4792 10.625 17C10.625 20.5208 13.4792 23.375 17 23.375Z" stroke="white" stroke-width="2.5" stroke-linecap="round" stroke-linejoin="round"/>
<path id="Vector_2" d="M24.3926 8.64442C24.7328 8.94568 25.0545 9.26733 25.3558 9.60759L28.9845 10.1258C29.573 11.1505 30.0267 12.2469 30.3344 13.3878L28.1357 16.3192C28.1357 16.3192 28.1634 17.2275 28.1358 17.6811L30.3353 20.6134C30.0269 21.7541 29.5724 22.8502 28.9833 23.8745L25.3558 24.3927C25.3558 24.3927 24.733 25.0545 24.3928 25.3558L23.8746 28.9845C22.8499 29.573 21.7535 30.0267 20.6126 30.3344L17.6814 28.1358C17.2278 28.1634 16.7729 28.1634 16.3192 28.1358L13.3869 30.3353C12.2462 30.0269 11.1502 29.5724 10.1259 28.9833L9.60778 25.356C9.26752 25.0547 8.94587 24.733 8.6446 24.3928L5.01585 23.8746C4.42739 22.8499 3.97369 21.7535 3.66599 20.6126L5.86463 17.6812C5.86463 17.6812 5.83698 16.7729 5.86455 16.3193L3.66504 13.3869C3.97351 12.2463 4.42796 11.1502 5.01712 10.1259L8.64443 9.60779C8.94569 9.26753 9.26734 8.94588 9.6076 8.64461L10.1258 5.01586C11.1505 4.4274 12.2469 3.97369 13.3878 3.66599L16.319 5.86456C16.7726 5.83698 17.2275 5.83698 17.6811 5.86455L20.6134 3.66504C21.7541 3.97351 22.8502 4.42796 23.8745 5.01711L24.3926 8.64442Z" stroke="white" stroke-width="2.5" stroke-linecap="round" stroke-linejoin="round"/>
</g>
</svg>
